<?xml version="1.0" encoding="utf-8" standalone="no"?>
<!DOCTYPE svg PUBLIC "-//W3C//DTD SVG 1.1//EN"
  "http://www.w3.org/Graphics/SVG/1.1/DTD/svg11.dtd">
<!-- Created with matplotlib (https://matplotlib.org/) -->
<svg height="482.4pt" version="1.1" viewBox="0 0 933.12 482.4" width="933.12pt" xmlns="http://www.w3.org/2000/svg" xmlns:xlink="http://www.w3.org/1999/xlink">
 <defs>
  <style type="text/css">
*{stroke-linecap:butt;stroke-linejoin:round;}
  </style>
 </defs>
 <g id="figure_1">
  <g id="patch_1">
   <path d="M 0 482.4 
L 933.12 482.4 
L 933.12 0 
L 0 0 
z
" style="fill:#ffffff;"/>
  </g>
  <g id="axes_1">
   <g id="patch_2">
    <path d="M 116.64 429.336 
L 839.808 429.336 
L 839.808 57.888 
L 116.64 57.888 
z
" style="fill:#ffffff;"/>
   </g>
   <g id="matplotlib.axis_1">
    <g id="xtick_1">
     <g id="line2d_1">
      <defs>
       <path d="M 0 0 
L 0 3.5 
" id="m48f8e389a4" style="stroke:#000000;stroke-width:0.8;"/>
      </defs>
      <g>
       <use style="stroke:#000000;stroke-width:0.8;" x="116.64" xlink:href="#m48f8e389a4" y="429.336"/>
      </g>
     </g>
     <g id="text_1">
      <!-- −12.0 -->
      <defs>
       <path d="M 10.59375 35.5 
L 73.1875 35.5 
L 73.1875 27.203125 
L 10.59375 27.203125 
z
" id="DejaVuSans-8722"/>
       <path d="M 12.40625 8.296875 
L 28.515625 8.296875 
L 28.515625 63.921875 
L 10.984375 60.40625 
L 10.984375 69.390625 
L 28.421875 72.90625 
L 38.28125 72.90625 
L 38.28125 8.296875 
L 54.390625 8.296875 
L 54.390625 0 
L 12.40625 0 
z
" id="DejaVuSans-49"/>
       <path d="M 19.1875 8.296875 
L 53.609375 8.296875 
L 53.609375 0 
L 7.328125 0 
L 7.328125 8.296875 
Q 12.9375 14.109375 22.625 23.890625 
Q 32.328125 33.6875 34.8125 36.53125 
Q 39.546875 41.84375 41.421875 45.53125 
Q 43.3125 49.21875 43.3125 52.78125 
Q 43.3125 58.59375 39.234375 62.25 
Q 35.15625 65.921875 28.609375 65.921875 
Q 23.96875 65.921875 18.8125 64.3125 
Q 13.671875 62.703125 7.8125 59.421875 
L 7.8125 69.390625 
Q 13.765625 71.78125 18.9375 73 
Q 24.125 74.21875 28.421875 74.21875 
Q 39.75 74.21875 46.484375 68.546875 
Q 53.21875 62.890625 53.21875 53.421875 
Q 53.21875 48.921875 51.53125 44.890625 
Q 49.859375 40.875 45.40625 35.40625 
Q 44.1875 33.984375 37.640625 27.21875 
Q 31.109375 20.453125 19.1875 8.296875 
z
" id="DejaVuSans-50"/>
       <path d="M 10.6875 12.40625 
L 21 12.40625 
L 21 0 
L 10.6875 0 
z
" id="DejaVuSans-46"/>
       <path d="M 31.78125 66.40625 
Q 24.171875 66.40625 20.328125 58.90625 
Q 16.5 51.421875 16.5 36.375 
Q 16.5 21.390625 20.328125 13.890625 
Q 24.171875 6.390625 31.78125 6.390625 
Q 39.453125 6.390625 43.28125 13.890625 
Q 47.125 21.390625 47.125 36.375 
Q 47.125 51.421875 43.28125 58.90625 
Q 39.453125 66.40625 31.78125 66.40625 
z
M 31.78125 74.21875 
Q 44.046875 74.21875 50.515625 64.515625 
Q 56.984375 54.828125 56.984375 36.375 
Q 56.984375 17.96875 50.515625 8.265625 
Q 44.046875 -1.421875 31.78125 -1.421875 
Q 19.53125 -1.421875 13.0625 8.265625 
Q 6.59375 17.96875 6.59375 36.375 
Q 6.59375 54.828125 13.0625 64.515625 
Q 19.53125 74.21875 31.78125 74.21875 
z
" id="DejaVuSans-48"/>
      </defs>
      <g transform="translate(101.317344 443.934438)scale(0.1 -0.1)">
       <use xlink:href="#DejaVuSans-8722"/>
       <use x="83.789062" xlink:href="#DejaVuSans-49"/>
       <use x="147.412109" xlink:href="#DejaVuSans-50"/>
       <use x="211.035156" xlink:href="#DejaVuSans-46"/>
       <use x="242.822266" xlink:href="#DejaVuSans-48"/>
      </g>
     </g>
    </g>
    <g id="xtick_2">
     <g id="line2d_2">
      <g>
       <use style="stroke:#000000;stroke-width:0.8;" x="161.838" xlink:href="#m48f8e389a4" y="429.336"/>
      </g>
     </g>
     <g id="text_2">
      <!-- −10.5 -->
      <defs>
       <path d="M 10.796875 72.90625 
L 49.515625 72.90625 
L 49.515625 64.59375 
L 19.828125 64.59375 
L 19.828125 46.734375 
Q 21.96875 47.46875 24.109375 47.828125 
Q 26.265625 48.1875 28.421875 48.1875 
Q 40.625 48.1875 47.75 41.5 
Q 54.890625 34.8125 54.890625 23.390625 
Q 54.890625 11.625 47.5625 5.09375 
Q 40.234375 -1.421875 26.90625 -1.421875 
Q 22.3125 -1.421875 17.546875 -0.640625 
Q 12.796875 0.140625 7.71875 1.703125 
L 7.71875 11.625 
Q 12.109375 9.234375 16.796875 8.0625 
Q 21.484375 6.890625 26.703125 6.890625 
Q 35.15625 6.890625 40.078125 11.328125 
Q 45.015625 15.765625 45.015625 23.390625 
Q 45.015625 31 40.078125 35.4375 
Q 35.15625 39.890625 26.703125 39.890625 
Q 22.75 39.890625 18.8125 39.015625 
Q 14.890625 38.140625 10.796875 36.28125 
z
" id="DejaVuSans-53"/>
      </defs>
      <g transform="translate(146.515344 443.934438)scale(0.1 -0.1)">
       <use xlink:href="#DejaVuSans-8722"/>
       <use x="83.789062" xlink:href="#DejaVuSans-49"/>
       <use x="147.412109" xlink:href="#DejaVuSans-48"/>
       <use x="211.035156" xlink:href="#DejaVuSans-46"/>
       <use x="242.822266" xlink:href="#DejaVuSans-53"/>
      </g>
     </g>
    </g>
    <g id="xtick_3">
     <g id="line2d_3">
      <g>
       <use style="stroke:#000000;stroke-width:0.8;" x="207.036" xlink:href="#m48f8e389a4" y="429.336"/>
      </g>
     </g>
     <g id="text_3">
      <!-- −9.0 -->
      <defs>
       <path d="M 10.984375 1.515625 
L 10.984375 10.5 
Q 14.703125 8.734375 18.5 7.8125 
Q 22.3125 6.890625 25.984375 6.890625 
Q 35.75 6.890625 40.890625 13.453125 
Q 46.046875 20.015625 46.78125 33.40625 
Q 43.953125 29.203125 39.59375 26.953125 
Q 35.25 24.703125 29.984375 24.703125 
Q 19.046875 24.703125 12.671875 31.3125 
Q 6.296875 37.9375 6.296875 49.421875 
Q 6.296875 60.640625 12.9375 67.421875 
Q 19.578125 74.21875 30.609375 74.21875 
Q 43.265625 74.21875 49.921875 64.515625 
Q 56.59375 54.828125 56.59375 36.375 
Q 56.59375 19.140625 48.40625 8.859375 
Q 40.234375 -1.421875 26.421875 -1.421875 
Q 22.703125 -1.421875 18.890625 -0.6875 
Q 15.09375 0.046875 10.984375 1.515625 
z
M 30.609375 32.421875 
Q 37.25 32.421875 41.125 36.953125 
Q 45.015625 41.5 45.015625 49.421875 
Q 45.015625 57.28125 41.125 61.84375 
Q 37.25 66.40625 30.609375 66.40625 
Q 23.96875 66.40625 20.09375 61.84375 
Q 16.21875 57.28125 16.21875 49.421875 
Q 16.21875 41.5 20.09375 36.953125 
Q 23.96875 32.421875 30.609375 32.421875 
z
" id="DejaVuSans-57"/>
      </defs>
      <g transform="translate(194.894594 443.934438)scale(0.1 -0.1)">
       <use xlink:href="#DejaVuSans-8722"/>
       <use x="83.789062" xlink:href="#DejaVuSans-57"/>
       <use x="147.412109" xlink:href="#DejaVuSans-46"/>
       <use x="179.199219" xlink:href="#DejaVuSans-48"/>
      </g>
     </g>
    </g>
    <g id="xtick_4">
     <g id="line2d_4">
      <g>
       <use style="stroke:#000000;stroke-width:0.8;" x="252.234" xlink:href="#m48f8e389a4" y="429.336"/>
      </g>
     </g>
     <g id="text_4">
      <!-- −7.5 -->
      <defs>
       <path d="M 8.203125 72.90625 
L 55.078125 72.90625 
L 55.078125 68.703125 
L 28.609375 0 
L 18.3125 0 
L 43.21875 64.59375 
L 8.203125 64.59375 
z
" id="DejaVuSans-55"/>
      </defs>
      <g transform="translate(240.092594 443.934438)scale(0.1 -0.1)">
       <use xlink:href="#DejaVuSans-8722"/>
       <use x="83.789062" xlink:href="#DejaVuSans-55"/>
       <use x="147.412109" xlink:href="#DejaVuSans-46"/>
       <use x="179.199219" xlink:href="#DejaVuSans-53"/>
      </g>
     </g>
    </g>
    <g id="xtick_5">
     <g id="line2d_5">
      <g>
       <use style="stroke:#000000;stroke-width:0.8;" x="297.432" xlink:href="#m48f8e389a4" y="429.336"/>
      </g>
     </g>
     <g id="text_5">
      <!-- −6.0 -->
      <defs>
       <path d="M 33.015625 40.375 
Q 26.375 40.375 22.484375 35.828125 
Q 18.609375 31.296875 18.609375 23.390625 
Q 18.609375 15.53125 22.484375 10.953125 
Q 26.375 6.390625 33.015625 6.390625 
Q 39.65625 6.390625 43.53125 10.953125 
Q 47.40625 15.53125 47.40625 23.390625 
Q 47.40625 31.296875 43.53125 35.828125 
Q 39.65625 40.375 33.015625 40.375 
z
M 52.59375 71.296875 
L 52.59375 62.3125 
Q 48.875 64.0625 45.09375 64.984375 
Q 41.3125 65.921875 37.59375 65.921875 
Q 27.828125 65.921875 22.671875 59.328125 
Q 17.53125 52.734375 16.796875 39.40625 
Q 19.671875 43.65625 24.015625 45.921875 
Q 28.375 48.1875 33.59375 48.1875 
Q 44.578125 48.1875 50.953125 41.515625 
Q 57.328125 34.859375 57.328125 23.390625 
Q 57.328125 12.15625 50.6875 5.359375 
Q 44.046875 -1.421875 33.015625 -1.421875 
Q 20.359375 -1.421875 13.671875 8.265625 
Q 6.984375 17.96875 6.984375 36.375 
Q 6.984375 53.65625 15.1875 63.9375 
Q 23.390625 74.21875 37.203125 74.21875 
Q 40.921875 74.21875 44.703125 73.484375 
Q 48.484375 72.75 52.59375 71.296875 
z
" id="DejaVuSans-54"/>
      </defs>
      <g transform="translate(285.290594 443.934438)scale(0.1 -0.1)">
       <use xlink:href="#DejaVuSans-8722"/>
       <use x="83.789062" xlink:href="#DejaVuSans-54"/>
       <use x="147.412109" xlink:href="#DejaVuSans-46"/>
       <use x="179.199219" xlink:href="#DejaVuSans-48"/>
      </g>
     </g>
    </g>
    <g id="xtick_6">
     <g id="line2d_6">
      <g>
       <use style="stroke:#000000;stroke-width:0.8;" x="342.63" xlink:href="#m48f8e389a4" y="429.336"/>
      </g>
     </g>
     <g id="text_6">
      <!-- −4.5 -->
      <defs>
       <path d="M 37.796875 64.3125 
L 12.890625 25.390625 
L 37.796875 25.390625 
z
M 35.203125 72.90625 
L 47.609375 72.90625 
L 47.609375 25.390625 
L 58.015625 25.390625 
L 58.015625 17.1875 
L 47.609375 17.1875 
L 47.609375 0 
L 37.796875 0 
L 37.796875 17.1875 
L 4.890625 17.1875 
L 4.890625 26.703125 
z
" id="DejaVuSans-52"/>
      </defs>
      <g transform="translate(330.488594 443.934438)scale(0.1 -0.1)">
       <use xlink:href="#DejaVuSans-8722"/>
       <use x="83.789062" xlink:href="#DejaVuSans-52"/>
       <use x="147.412109" xlink:href="#DejaVuSans-46"/>
       <use x="179.199219" xlink:href="#DejaVuSans-53"/>
      </g>
     </g>
    </g>
    <g id="xtick_7">
     <g id="line2d_7">
      <g>
       <use style="stroke:#000000;stroke-width:0.8;" x="387.828" xlink:href="#m48f8e389a4" y="429.336"/>
      </g>
     </g>
     <g id="text_7">
      <!-- −3.0 -->
      <defs>
       <path d="M 40.578125 39.3125 
Q 47.65625 37.796875 51.625 33 
Q 55.609375 28.21875 55.609375 21.1875 
Q 55.609375 10.40625 48.1875 4.484375 
Q 40.765625 -1.421875 27.09375 -1.421875 
Q 22.515625 -1.421875 17.65625 -0.515625 
Q 12.796875 0.390625 7.625 2.203125 
L 7.625 11.71875 
Q 11.71875 9.328125 16.59375 8.109375 
Q 21.484375 6.890625 26.8125 6.890625 
Q 36.078125 6.890625 40.9375 10.546875 
Q 45.796875 14.203125 45.796875 21.1875 
Q 45.796875 27.640625 41.28125 31.265625 
Q 36.765625 34.90625 28.71875 34.90625 
L 20.21875 34.90625 
L 20.21875 43.015625 
L 29.109375 43.015625 
Q 36.375 43.015625 40.234375 45.921875 
Q 44.09375 48.828125 44.09375 54.296875 
Q 44.09375 59.90625 40.109375 62.90625 
Q 36.140625 65.921875 28.71875 65.921875 
Q 24.65625 65.921875 20.015625 65.03125 
Q 15.375 64.15625 9.8125 62.3125 
L 9.8125 71.09375 
Q 15.4375 72.65625 20.34375 73.4375 
Q 25.25 74.21875 29.59375 74.21875 
Q 40.828125 74.21875 47.359375 69.109375 
Q 53.90625 64.015625 53.90625 55.328125 
Q 53.90625 49.265625 50.4375 45.09375 
Q 46.96875 40.921875 40.578125 39.3125 
z
" id="DejaVuSans-51"/>
      </defs>
      <g transform="translate(375.686594 443.934438)scale(0.1 -0.1)">
       <use xlink:href="#DejaVuSans-8722"/>
       <use x="83.789062" xlink:href="#DejaVuSans-51"/>
       <use x="147.412109" xlink:href="#DejaVuSans-46"/>
       <use x="179.199219" xlink:href="#DejaVuSans-48"/>
      </g>
     </g>
    </g>
    <g id="xtick_8">
     <g id="line2d_8">
      <g>
       <use style="stroke:#000000;stroke-width:0.8;" x="433.026" xlink:href="#m48f8e389a4" y="429.336"/>
      </g>
     </g>
     <g id="text_8">
      <!-- −1.5 -->
      <g transform="translate(420.884594 443.934438)scale(0.1 -0.1)">
       <use xlink:href="#DejaVuSans-8722"/>
       <use x="83.789062" xlink:href="#DejaVuSans-49"/>
       <use x="147.412109" xlink:href="#DejaVuSans-46"/>
       <use x="179.199219" xlink:href="#DejaVuSans-53"/>
      </g>
     </g>
    </g>
    <g id="xtick_9">
     <g id="line2d_9">
      <g>
       <use style="stroke:#000000;stroke-width:0.8;" x="478.224" xlink:href="#m48f8e389a4" y="429.336"/>
      </g>
     </g>
     <g id="text_9">
      <!-- 0.0 -->
      <g transform="translate(470.272438 443.934438)scale(0.1 -0.1)">
       <use xlink:href="#DejaVuSans-48"/>
       <use x="63.623047" xlink:href="#DejaVuSans-46"/>
       <use x="95.410156" xlink:href="#DejaVuSans-48"/>
      </g>
     </g>
    </g>
    <g id="xtick_10">
     <g id="line2d_10">
      <g>
       <use style="stroke:#000000;stroke-width:0.8;" x="523.422" xlink:href="#m48f8e389a4" y="429.336"/>
      </g>
     </g>
     <g id="text_10">
      <!-- 1.5 -->
      <g transform="translate(515.470438 443.934438)scale(0.1 -0.1)">
       <use xlink:href="#DejaVuSans-49"/>
       <use x="63.623047" xlink:href="#DejaVuSans-46"/>
       <use x="95.410156" xlink:href="#DejaVuSans-53"/>
      </g>
     </g>
    </g>
    <g id="xtick_11">
     <g id="line2d_11">
      <g>
       <use style="stroke:#000000;stroke-width:0.8;" x="568.62" xlink:href="#m48f8e389a4" y="429.336"/>
      </g>
     </g>
     <g id="text_11">
      <!-- 3.0 -->
      <g transform="translate(560.668438 443.934438)scale(0.1 -0.1)">
       <use xlink:href="#DejaVuSans-51"/>
       <use x="63.623047" xlink:href="#DejaVuSans-46"/>
       <use x="95.410156" xlink:href="#DejaVuSans-48"/>
      </g>
     </g>
    </g>
    <g id="xtick_12">
     <g id="line2d_12">
      <g>
       <use style="stroke:#000000;stroke-width:0.8;" x="613.818" xlink:href="#m48f8e389a4" y="429.336"/>
      </g>
     </g>
     <g id="text_12">
      <!-- 4.5 -->
      <g transform="translate(605.866438 443.934438)scale(0.1 -0.1)">
       <use xlink:href="#DejaVuSans-52"/>
       <use x="63.623047" xlink:href="#DejaVuSans-46"/>
       <use x="95.410156" xlink:href="#DejaVuSans-53"/>
      </g>
     </g>
    </g>
    <g id="xtick_13">
     <g id="line2d_13">
      <g>
       <use style="stroke:#000000;stroke-width:0.8;" x="659.016" xlink:href="#m48f8e389a4" y="429.336"/>
      </g>
     </g>
     <g id="text_13">
      <!-- 6.0 -->
      <g transform="translate(651.064438 443.934438)scale(0.1 -0.1)">
       <use xlink:href="#DejaVuSans-54"/>
       <use x="63.623047" xlink:href="#DejaVuSans-46"/>
       <use x="95.410156" xlink:href="#DejaVuSans-48"/>
      </g>
     </g>
    </g>
    <g id="xtick_14">
     <g id="line2d_14">
      <g>
       <use style="stroke:#000000;stroke-width:0.8;" x="704.214" xlink:href="#m48f8e389a4" y="429.336"/>
      </g>
     </g>
     <g id="text_14">
      <!-- 7.5 -->
      <g transform="translate(696.262438 443.934438)scale(0.1 -0.1)">
       <use xlink:href="#DejaVuSans-55"/>
       <use x="63.623047" xlink:href="#DejaVuSans-46"/>
       <use x="95.410156" xlink:href="#DejaVuSans-53"/>
      </g>
     </g>
    </g>
    <g id="xtick_15">
     <g id="line2d_15">
      <g>
       <use style="stroke:#000000;stroke-width:0.8;" x="749.412" xlink:href="#m48f8e389a4" y="429.336"/>
      </g>
     </g>
     <g id="text_15">
      <!-- 9.0 -->
      <g transform="translate(741.460438 443.934438)scale(0.1 -0.1)">
       <use xlink:href="#DejaVuSans-57"/>
       <use x="63.623047" xlink:href="#DejaVuSans-46"/>
       <use x="95.410156" xlink:href="#DejaVuSans-48"/>
      </g>
     </g>
    </g>
    <g id="xtick_16">
     <g id="line2d_16">
      <g>
       <use style="stroke:#000000;stroke-width:0.8;" x="794.61" xlink:href="#m48f8e389a4" y="429.336"/>
      </g>
     </g>
     <g id="text_16">
      <!-- 10.5 -->
      <g transform="translate(783.477188 443.934438)scale(0.1 -0.1)">
       <use xlink:href="#DejaVuSans-49"/>
       <use x="63.623047" xlink:href="#DejaVuSans-48"/>
       <use x="127.246094" xlink:href="#DejaVuSans-46"/>
       <use x="159.033203" xlink:href="#DejaVuSans-53"/>
      </g>
     </g>
    </g>
    <g id="xtick_17">
     <g id="line2d_17">
      <g>
       <use style="stroke:#000000;stroke-width:0.8;" x="839.808" xlink:href="#m48f8e389a4" y="429.336"/>
      </g>
     </g>
     <g id="text_17">
      <!-- 12.0 -->
      <g transform="translate(828.675188 443.934438)scale(0.1 -0.1)">
       <use xlink:href="#DejaVuSans-49"/>
       <use x="63.623047" xlink:href="#DejaVuSans-50"/>
       <use x="127.246094" xlink:href="#DejaVuSans-46"/>
       <use x="159.033203" xlink:href="#DejaVuSans-48"/>
      </g>
     </g>
    </g>
   </g>
   <g id="matplotlib.axis_2">
    <g id="ytick_1">
     <g id="line2d_18">
      <defs>
       <path d="M 0 0 
L -3.5 0 
" id="m22e66a3c8c" style="stroke:#000000;stroke-width:0.8;"/>
      </defs>
      <g>
       <use style="stroke:#000000;stroke-width:0.8;" x="116.64" xlink:href="#m22e66a3c8c" y="429.336"/>
      </g>
     </g>
     <g id="text_18">
      <!-- 500 -->
      <g transform="translate(90.5525 433.135219)scale(0.1 -0.1)">
       <use xlink:href="#DejaVuSans-53"/>
       <use x="63.623047" xlink:href="#DejaVuSans-48"/>
       <use x="127.246094" xlink:href="#DejaVuSans-48"/>
      </g>
     </g>
    </g>
    <g id="ytick_2">
     <g id="line2d_19">
      <g>
       <use style="stroke:#000000;stroke-width:0.8;" x="116.64" xlink:href="#m22e66a3c8c" y="336.474"/>
      </g>
     </g>
     <g id="text_19">
      <!-- 875 -->
      <defs>
       <path d="M 31.78125 34.625 
Q 24.75 34.625 20.71875 30.859375 
Q 16.703125 27.09375 16.703125 20.515625 
Q 16.703125 13.921875 20.71875 10.15625 
Q 24.75 6.390625 31.78125 6.390625 
Q 38.8125 6.390625 42.859375 10.171875 
Q 46.921875 13.96875 46.921875 20.515625 
Q 46.921875 27.09375 42.890625 30.859375 
Q 38.875 34.625 31.78125 34.625 
z
M 21.921875 38.8125 
Q 15.578125 40.375 12.03125 44.71875 
Q 8.5 49.078125 8.5 55.328125 
Q 8.5 64.0625 14.71875 69.140625 
Q 20.953125 74.21875 31.78125 74.21875 
Q 42.671875 74.21875 48.875 69.140625 
Q 55.078125 64.0625 55.078125 55.328125 
Q 55.078125 49.078125 51.53125 44.71875 
Q 48 40.375 41.703125 38.8125 
Q 48.828125 37.15625 52.796875 32.3125 
Q 56.78125 27.484375 56.78125 20.515625 
Q 56.78125 9.90625 50.3125 4.234375 
Q 43.84375 -1.421875 31.78125 -1.421875 
Q 19.734375 -1.421875 13.25 4.234375 
Q 6.78125 9.90625 6.78125 20.515625 
Q 6.78125 27.484375 10.78125 32.3125 
Q 14.796875 37.15625 21.921875 38.8125 
z
M 18.3125 54.390625 
Q 18.3125 48.734375 21.84375 45.5625 
Q 25.390625 42.390625 31.78125 42.390625 
Q 38.140625 42.390625 41.71875 45.5625 
Q 45.3125 48.734375 45.3125 54.390625 
Q 45.3125 60.0625 41.71875 63.234375 
Q 38.140625 66.40625 31.78125 66.40625 
Q 25.390625 66.40625 21.84375 63.234375 
Q 18.3125 60.0625 18.3125 54.390625 
z
" id="DejaVuSans-56"/>
      </defs>
      <g transform="translate(90.5525 340.273219)scale(0.1 -0.1)">
       <use xlink:href="#DejaVuSans-56"/>
       <use x="63.623047" xlink:href="#DejaVuSans-55"/>
       <use x="127.246094" xlink:href="#DejaVuSans-53"/>
      </g>
     </g>
    </g>
    <g id="ytick_3">
     <g id="line2d_20">
      <g>
       <use style="stroke:#000000;stroke-width:0.8;" x="116.64" xlink:href="#m22e66a3c8c" y="243.612"/>
      </g>
     </g>
     <g id="text_20">
      <!-- 1250 -->
      <g transform="translate(84.19 247.411219)scale(0.1 -0.1)">
       <use xlink:href="#DejaVuSans-49"/>
       <use x="63.623047" xlink:href="#DejaVuSans-50"/>
       <use x="127.246094" xlink:href="#DejaVuSans-53"/>
       <use x="190.869141" xlink:href="#DejaVuSans-48"/>
      </g>
     </g>
    </g>
    <g id="ytick_4">
     <g id="line2d_21">
      <g>
       <use style="stroke:#000000;stroke-width:0.8;" x="116.64" xlink:href="#m22e66a3c8c" y="150.75"/>
      </g>
     </g>
     <g id="text_21">
      <!-- 1625 -->
      <g transform="translate(84.19 154.549219)scale(0.1 -0.1)">
       <use xlink:href="#DejaVuSans-49"/>
       <use x="63.623047" xlink:href="#DejaVuSans-54"/>
       <use x="127.246094" xlink:href="#DejaVuSans-50"/>
       <use x="190.869141" xlink:href="#DejaVuSans-53"/>
      </g>
     </g>
    </g>
    <g id="ytick_5">
     <g id="line2d_22">
      <g>
       <use style="stroke:#000000;stroke-width:0.8;" x="116.64" xlink:href="#m22e66a3c8c" y="57.888"/>
      </g>
     </g>
     <g id="text_22">
      <!-- 2000 -->
      <g transform="translate(84.19 61.687219)scale(0.1 -0.1)">
       <use xlink:href="#DejaVuSans-50"/>
       <use x="63.623047" xlink:href="#DejaVuSans-48"/>
       <use x="127.246094" xlink:href="#DejaVuSans-48"/>
       <use x="190.869141" xlink:href="#DejaVuSans-48"/>
      </g>
     </g>
    </g>
   </g>
   <g id="line2d_23">
    <path clip-path="url(#pd9ea308f76)" d="M 176.904 476.431109 
L 188.9568 473.351326 
L 201.0096 470.001466 
L 210.0492 467.286664 
L 219.0888 464.374856 
L 228.1284 461.239653 
L 237.168 457.849059 
L 246.2076 454.162914 
L 252.234 451.516793 
L 258.2604 448.698955 
L 264.2868 445.686644 
L 270.3132 442.453788 
L 276.3396 438.967414 
L 282.366 435.186459 
L 288.3924 431.059588 
L 294.4188 426.521079 
L 300.4452 421.48615 
L 303.4584 418.748354 
L 306.4716 415.841354 
L 309.4848 412.743484 
L 312.498 409.431476 
L 315.5112 405.875219 
L 318.5244 402.039309 
L 321.5376 397.880631 
L 324.5508 393.344541 
L 327.564 388.361546 
L 330.5772 382.841718 
L 333.5904 376.663991 
L 336.6036 369.661201 
L 339.6168 361.587985 
L 342.63 352.069669 
L 345.6432 340.479067 
L 348.6564 325.642572 
L 351.6696 304.935709 
L 354.6828 269.984078 
L 357.696 155.670463 
L 360.7092 268.153513 
L 363.7224 301.270902 
L 366.7356 320.136737 
L 369.7488 333.121479 
L 372.762 342.846082 
L 375.7752 350.480239 
L 378.7884 356.647206 
L 381.8016 361.717603 
L 384.8148 365.932069 
L 387.828 369.45355 
L 390.8412 372.397882 
L 393.8544 374.849335 
L 396.8676 376.871877 
L 399.8808 378.513657 
L 402.894 379.81064 
L 405.9072 380.790286 
L 408.9204 381.474339 
L 411.9336 381.876051 
L 414.9468 382.006523 
L 417.96 381.870624 
L 420.9732 381.469259 
L 423.9864 380.800147 
L 426.9996 379.854793 
L 430.0128 378.622362 
L 433.026 377.085503 
L 436.0392 375.222067 
L 439.0524 373.002594 
L 442.0656 370.388041 
L 445.0788 367.328939 
L 448.092 363.760198 
L 451.1052 359.594731 
L 454.1184 354.715603 
L 457.1316 348.95738 
L 460.1448 342.078374 
L 463.158 333.70525 
L 466.1712 323.212888 
L 469.1844 309.43203 
L 472.1976 289.737318 
L 475.2108 255.758496 
L 478.224 142.378494 
L 481.2372 255.758496 
L 484.2504 289.737318 
L 487.2636 309.43203 
L 490.2768 323.212888 
L 493.29 333.70525 
L 496.3032 342.078374 
L 499.3164 348.95738 
L 502.3296 354.715603 
L 505.3428 359.594731 
L 508.356 363.760198 
L 511.3692 367.328939 
L 514.3824 370.388041 
L 517.3956 373.002594 
L 520.4088 375.222067 
L 523.422 377.085503 
L 526.4352 378.622362 
L 529.4484 379.854793 
L 532.4616 380.800147 
L 535.4748 381.469259 
L 538.488 381.870624 
L 541.5012 382.006523 
L 544.5144 381.876051 
L 547.5276 381.474339 
L 550.5408 380.790286 
L 553.554 379.81064 
L 556.5672 378.513657 
L 559.5804 376.871877 
L 562.5936 374.849335 
L 565.6068 372.397882 
L 568.62 369.45355 
L 571.6332 365.932069 
L 574.6464 361.717603 
L 577.6596 356.647206 
L 580.6728 350.480239 
L 583.686 342.846082 
L 586.6992 333.121479 
L 589.7124 320.136737 
L 592.7256 301.270902 
L 595.7388 268.153513 
L 598.752 155.670463 
L 601.7652 269.984078 
L 604.7784 304.935709 
L 607.7916 325.642572 
L 610.8048 340.479067 
L 613.818 352.069669 
L 616.8312 361.587985 
L 619.8444 369.661201 
L 622.8576 376.663991 
L 625.8708 382.841718 
L 628.884 388.361546 
L 631.8972 393.344541 
L 634.9104 397.880631 
L 637.9236 402.039309 
L 640.9368 405.875219 
L 643.95 409.431476 
L 646.9632 412.743484 
L 649.9764 415.841354 
L 652.9896 418.748354 
L 656.0028 421.48615 
L 662.0292 426.521079 
L 668.0556 431.059588 
L 674.082 435.186459 
L 680.1084 438.967414 
L 686.1348 442.453788 
L 692.1612 445.686644 
L 698.1876 448.698955 
L 704.214 451.516793 
L 713.2536 455.42694 
L 722.2932 459.009728 
L 731.3328 462.311377 
L 740.3724 465.368994 
L 749.412 468.212364 
L 758.4516 470.866302 
L 770.5044 474.145129 
L 776.5308 475.684482 
L 776.5308 475.684482 
" style="fill:none;stroke:#0000ff;stroke-linecap:square;"/>
   </g>
   <g id="line2d_24">
    <path clip-path="url(#pd9ea308f76)" d="M 176.904 471.332756 
L 188.9568 467.75825 
L 197.9964 464.868998 
L 207.036 461.781822 
L 216.0756 458.474812 
L 225.1152 454.92355 
L 234.1548 451.098678 
L 243.1944 446.964618 
L 249.2208 444.016374 
L 255.2472 440.896477 
L 261.2736 437.585561 
L 267.3 434.062565 
L 273.3264 430.299819 
L 279.3528 426.265068 
L 285.3792 421.917075 
L 291.4056 417.200688 
L 297.432 412.047749 
L 303.4584 406.366914 
L 306.4716 403.291673 
L 309.4848 400.03274 
L 312.498 396.568645 
L 315.5112 392.870177 
L 318.5244 388.902883 
L 321.5376 384.625331 
L 324.5508 379.983297 
L 327.564 374.908647 
L 330.5772 369.312754 
L 333.5904 363.075964 
L 336.6036 356.032153 
L 339.6168 347.937122 
L 342.63 338.418117 
L 345.6432 326.84925 
L 348.6564 312.057487 
L 351.6696 291.421124 
L 354.6828 256.566279 
L 357.696 142.378494 
L 360.7092 255.01649 
L 363.7224 288.321145 
L 366.7356 307.408574 
L 369.7488 320.650168 
L 372.762 330.669995 
L 375.7752 338.639805 
L 378.7884 345.186 
L 381.8016 350.68092 
L 384.8148 355.369467 
L 387.828 359.418426 
L 390.8412 362.946331 
L 393.8544 366.043117 
L 396.8676 368.777459 
L 399.8808 371.201841 
L 402.894 373.360814 
L 405.9072 375.287159 
L 408.9204 377.010884 
L 411.9336 378.55446 
L 414.9468 379.939833 
L 417.96 381.183751 
L 423.9864 383.304624 
L 430.0128 385.012514 
L 436.0392 386.380288 
L 442.0656 387.467823 
L 448.092 388.319177 
L 454.1184 388.970131 
L 460.1448 389.448603 
L 469.1844 389.887601 
L 478.224 390.02973 
L 487.2636 389.887601 
L 496.3032 389.448603 
L 502.3296 388.970131 
L 508.356 388.319177 
L 514.3824 387.467823 
L 520.4088 386.380288 
L 526.4352 385.012514 
L 532.4616 383.304624 
L 538.488 381.183751 
L 541.5012 379.939833 
L 544.5144 378.55446 
L 547.5276 377.010884 
L 550.5408 375.287159 
L 553.554 373.360814 
L 556.5672 371.201841 
L 559.5804 368.777459 
L 562.5936 366.043117 
L 565.6068 362.946331 
L 568.62 359.418426 
L 571.6332 355.369467 
L 574.6464 350.68092 
L 577.6596 345.186 
L 580.6728 338.639805 
L 583.686 330.669995 
L 586.6992 320.650168 
L 589.7124 307.408574 
L 592.7256 288.321145 
L 595.7388 255.01649 
L 598.752 142.378494 
L 601.7652 256.566279 
L 604.7784 291.421124 
L 607.7916 312.057487 
L 610.8048 326.84925 
L 613.818 338.418117 
L 616.8312 347.937122 
L 619.8444 356.032153 
L 622.8576 363.075964 
L 625.8708 369.312754 
L 628.884 374.908647 
L 631.8972 379.983297 
L 634.9104 384.625331 
L 637.9236 388.902883 
L 640.9368 392.870177 
L 643.95 396.568645 
L 646.9632 400.03274 
L 649.9764 403.291673 
L 652.9896 406.366914 
L 659.016 412.047749 
L 665.0424 417.200688 
L 671.0688 421.917075 
L 677.0952 426.265068 
L 683.1216 430.299819 
L 689.148 434.062565 
L 695.1744 437.585561 
L 701.2008 440.896477 
L 707.2272 444.016374 
L 716.2668 448.379731 
L 725.3064 452.406154 
L 734.346 456.136114 
L 743.3856 459.602907 
L 752.4252 462.834149 
L 761.4648 465.853237 
L 770.5044 468.680395 
L 776.5308 470.466913 
L 776.5308 470.466913 
" style="fill:none;stroke:#008000;stroke-linecap:square;"/>
   </g>
   <g id="patch_3">
    <path d="M 116.64 429.336 
L 116.64 57.888 
" style="fill:none;stroke:#000000;stroke-linecap:square;stroke-linejoin:miter;stroke-width:0.8;"/>
   </g>
   <g id="patch_4">
    <path d="M 839.808 429.336 
L 839.808 57.888 
" style="fill:none;stroke:#000000;stroke-linecap:square;stroke-linejoin:miter;stroke-width:0.8;"/>
   </g>
   <g id="patch_5">
    <path d="M 116.64 429.336 
L 839.808 429.336 
" style="fill:none;stroke:#000000;stroke-linecap:square;stroke-linejoin:miter;stroke-width:0.8;"/>
   </g>
   <g id="patch_6">
    <path d="M 116.64 57.888 
L 839.808 57.888 
" style="fill:none;stroke:#000000;stroke-linecap:square;stroke-linejoin:miter;stroke-width:0.8;"/>
   </g>
  </g>
 </g>
 <defs>
  <clipPath id="pd9ea308f76">
   <rect height="371.448" width="723.168" x="116.64" y="57.888"/>
  </clipPath>
 </defs>
</svg>
